<svg width="18" height="30" viewBox="0 0 18 30" fill="none" xmlns="http://www.w3.org/2000/svg">
<path d="M8.97666 0C4.11086 0 0.152344 3.95851 0.152344 8.82431V21.1757C0.152344 26.0415 4.11086 30 8.97666 30C13.8425 30 17.801 26.0415 17.801 21.1757V8.82431C17.801 3.95851 13.8425 0 8.97666 0ZM16.001 21.1757C16.001 25.0488 12.8498 28.2001 8.97666 28.2001C5.10352 28.2001 1.95227 25.0488 1.95227 21.1757V8.82431C1.95227 4.95117 5.10352 1.79993 8.97666 1.79993C12.8498 1.79993 16.001 4.95117 16.001 8.82431V21.1757Z" fill="white"/>
<path d="M8.97688 5.96787C8.47975 5.96787 8.07692 6.3707 8.07692 6.86784V11.0101C8.07692 11.507 8.47975 11.9101 8.97688 11.9101C9.47378 11.9101 9.87684 11.507 9.87684 11.0101V6.86784C9.87684 6.3707 9.47401 5.96787 8.97688 5.96787Z" fill="white"/>
</svg>
